<svg xmlns="http://www.w3.org/2000/svg" width="32" height="33" viewBox="0 0 32 33" fill="none"><path d="M31.8667 6.10012C31.7334 5.96681 31.6 5.83343 31.3334 5.83343H6L5.33331 2.36681C5.33331 2.10012 4.93331 1.8335 4.66663 1.8335H0.666625C0.266688 1.83343 0 2.10012 0 2.50012C0 2.90012 0.266687 3.16681 0.666687 3.16681H4.13338L7.33337 19.4335C7.73338 21.5668 9.73338 23.1668 11.8667 23.1668H27.2C27.6 23.1668 27.8667 22.9001 27.8667 22.5001C27.8667 22.1001 27.6 21.8334 27.2 21.8334H12C10.9333 21.8334 9.86669 21.3001 9.33331 20.3667L28.8 17.7001C29.0667 17.7001 29.3333 17.4334 29.3333 17.1668L32 6.50012C32 6.50012 32 6.23343 31.8667 6.10012ZM28.1333 16.5001L8.66663 19.0334L6.26662 7.03343H30.4L28.1333 16.5001Z" fill="black"></path><path d="M11.3333 24.5C9.46669 24.5 8 25.9667 8 27.8333C8 29.7 9.46669 31.1666 11.3333 31.1666C13.2 31.1666 14.6666 29.6999 14.6666 27.8333C14.6667 25.9667 13.2 24.5 11.3333 24.5ZM11.3333 29.8333C10.2666 29.8333 9.33331 28.8999 9.33331 27.8333C9.33331 26.7667 10.2666 25.8333 11.3333 25.8333C12.4 25.8333 13.3333 26.7667 13.3333 27.8333C13.3333 28.8999 12.4 29.8333 11.3333 29.8333Z" fill="black"></path><path d="M24.6673 24.5C22.8006 24.5 21.334 25.9667 21.334 27.8333C21.334 29.7 22.8007 31.1666 24.6673 31.1666C26.534 31.1666 28.0006 29.6999 28.0006 27.8333C28.0006 25.9667 26.5339 24.5 24.6673 24.5ZM24.6673 29.8333C23.6006 29.8333 22.6673 28.8999 22.6673 27.8333C22.6673 26.7667 23.6006 25.8333 24.6673 25.8333C25.734 25.8333 26.6673 26.7667 26.6673 27.8333C26.6673 28.8999 25.7339 29.8333 24.6673 29.8333Z" fill="black"></path></svg>